<svg width="40" height="40" viewBox="0 0 40 40" fill="none" xmlns="http://www.w3.org/2000/svg">
<path d="M34.1172 12.2834C34.1172 12.2834 34.1172 12.2834 34.1172 12.1501L34.0172 11.9001C33.9824 11.847 33.9434 11.7969 33.9006 11.7501C33.856 11.6795 33.8058 11.6126 33.7506 11.5501L33.6006 11.4334L33.3339 11.3001L20.8339 3.58342C20.569 3.41786 20.2629 3.33008 19.9506 3.33008C19.6382 3.33008 19.3321 3.41786 19.0672 3.58342L6.66723 11.3001L6.51723 11.4334L6.36723 11.5501C6.31199 11.6126 6.26183 11.6795 6.21723 11.7501C6.17439 11.7969 6.13537 11.847 6.10057 11.9001L6.00057 12.1501C6.00057 12.1501 6.00057 12.1501 6.00057 12.2834C5.98419 12.4274 5.98419 12.5728 6.00057 12.7167V27.2834C6 27.5667 6.07163 27.8454 6.20869 28.0932C6.34574 28.3411 6.54371 28.55 6.7839 28.7001L19.2839 36.4168C19.3608 36.4643 19.4454 36.4981 19.5339 36.5168C19.5339 36.5168 19.6172 36.5168 19.6672 36.5168C19.9492 36.6062 20.2519 36.6062 20.5339 36.5168C20.5339 36.5168 20.6172 36.5168 20.6672 36.5168C20.7557 36.4981 20.8403 36.4643 20.9172 36.4168V36.4168L33.3339 28.7001C33.5741 28.55 33.7721 28.3411 33.9091 28.0932C34.0462 27.8454 34.1178 27.5667 34.1172 27.2834V12.7167C34.1336 12.5728 34.1336 12.4274 34.1172 12.2834V12.2834ZM18.3339 32.0168L9.16723 26.3501V15.7168L18.3339 21.3668V32.0168ZM20.0006 18.4834L10.6672 12.7167L20.0006 6.96675L29.3339 12.7167L20.0006 18.4834ZM30.8339 26.3501L21.6672 32.0168V21.3668L30.8339 15.7168V26.3501Z" fill="white"/>
</svg>
