<svg width="41" height="40" viewBox="0 0 41 40" fill="none" xmlns="http://www.w3.org/2000/svg">
<path d="M40.8158 21.1354C40.8158 20.9141 40.7624 20.7005 40.6861 20.5021L40.5793 20.3038C40.5411 20.2122 40.5029 20.1207 40.4495 20.052L36.0927 14.2459C35.5815 13.5745 34.9329 13.0328 34.1698 12.6514C33.4221 12.2699 32.5904 12.0715 31.7358 12.0715H28.1038V8.43985C28.1038 6.99024 27.5239 5.60932 26.5091 4.59459C25.4943 3.57986 24.1132 3 22.6634 3H6.32709C4.87734 3 3.49628 3.57986 2.48146 4.59459C1.46664 5.60932 0.886719 6.99024 0.886719 8.43985V30.2222C0.886719 30.7104 1.08511 31.1682 1.41321 31.5115C1.75657 31.8396 2.21439 32.038 2.70272 32.038H4.51872C4.51872 33.4876 5.0986 34.8685 6.11342 35.8832C7.12824 36.898 8.50935 37.4778 9.95909 37.4778C11.4088 37.4778 12.7899 36.898 13.8047 35.8832C14.8195 34.8685 15.3995 33.4876 15.3995 32.038H26.2878C26.2878 33.4876 26.8677 34.8685 27.8825 35.8832C28.8974 36.898 30.2784 37.4778 31.7282 37.4778C33.1779 37.4778 34.559 36.898 35.5738 35.8832C36.5887 34.8685 37.1685 33.4876 37.1685 32.038H38.9845C39.4729 32.038 39.9307 31.8396 40.274 31.5115C40.6021 31.1682 40.8005 30.7104 40.8005 30.2222V21.1506M11.7751 32.0227C11.7751 32.511 11.5767 32.9688 11.2486 33.3121C10.9052 33.6402 10.4474 33.8385 9.95909 33.8385C9.59284 33.8385 9.24947 33.7317 8.94426 33.5334C8.65431 33.335 8.41778 33.0603 8.28807 32.717C8.14309 32.3889 8.10493 32.0303 8.18123 31.6641C8.25753 31.3208 8.41778 30.9927 8.66958 30.741C8.92138 30.4892 9.24945 30.3213 9.59281 30.2527C9.95906 30.1764 10.3177 30.2145 10.6458 30.3595C10.9891 30.4892 11.2638 30.7257 11.4622 31.0156C11.6606 31.3208 11.7675 31.6718 11.7675 32.0304M24.4794 28.3911H13.9878C13.4766 27.8265 12.8662 27.3763 12.1566 27.0635C11.4699 26.7736 10.7221 26.6134 9.95909 26.6134C9.19607 26.6134 8.45593 26.7736 7.76158 27.0635C7.05196 27.3687 6.4339 27.8265 5.9303 28.3911H4.51109V8.4246C4.51109 7.93631 4.70947 7.47854 5.03757 7.13521C5.38094 6.80714 5.83875 6.60877 6.32709 6.60877H22.6634C23.1518 6.60877 23.6096 6.80714 23.9529 7.13521C24.281 7.47854 24.4794 7.93631 24.4794 8.4246V28.3911ZM28.1114 15.6879H31.7434C32.0334 15.6879 32.3081 15.7642 32.5599 15.8863C32.8117 16.016 33.033 16.1915 33.1932 16.4127L35.3678 19.3196H28.1038V15.6879H28.1114ZM33.5518 32.0227C33.5518 32.511 33.3534 32.9688 33.0253 33.3121C32.6819 33.6402 32.2241 33.8385 31.7358 33.8385C31.3695 33.8385 31.0262 33.7317 30.721 33.5334C30.431 33.335 30.1945 33.0603 30.0648 32.717C29.9198 32.3889 29.8816 32.0303 29.9579 31.6641C30.0342 31.3208 30.1945 30.9927 30.4463 30.741C30.6981 30.4892 31.0262 30.3213 31.3696 30.2527C31.7358 30.1764 32.0944 30.2145 32.4225 30.3595C32.7659 30.4892 33.0406 30.7257 33.239 31.0156C33.4374 31.3208 33.5442 31.6718 33.5442 32.0304M37.1838 28.3911H35.7646C34.8032 27.3229 33.4602 26.682 32.0257 26.6134C30.576 26.5371 29.1797 27.033 28.1038 27.9943V22.9512H37.1762V28.3987L37.1838 28.3911Z" fill="white"/>
</svg>
