<svg width="40" height="40" viewBox="0 0 40 40" fill="none" xmlns="http://www.w3.org/2000/svg">
<path d="M33.9695 9.96879C33.7758 9.77352 33.5454 9.61853 33.2915 9.51276C33.0377 9.40699 32.7654 9.35254 32.4903 9.35254C32.2153 9.35254 31.943 9.40699 31.6891 9.51276C31.4353 9.61853 31.2048 9.77352 31.0112 9.96879L15.4903 25.5105L8.9695 18.9688C8.76841 18.7745 8.53104 18.6218 8.27092 18.5193C8.01081 18.4168 7.73305 18.3665 7.4535 18.3713C7.17396 18.3762 6.89811 18.436 6.6417 18.5475C6.38528 18.6589 6.15333 18.8198 5.95908 19.0209C5.76484 19.222 5.6121 19.4593 5.50959 19.7194C5.40708 19.9796 5.35681 20.2573 5.36165 20.5369C5.36648 20.8164 5.42633 21.0923 5.53778 21.3487C5.64922 21.6051 5.81008 21.837 6.01117 22.0313L14.0112 30.0313C14.2048 30.2266 14.4353 30.3815 14.6891 30.4873C14.943 30.5931 15.2153 30.6475 15.4903 30.6475C15.7654 30.6475 16.0377 30.5931 16.2915 30.4873C16.5454 30.3815 16.7758 30.2266 16.9695 30.0313L33.9695 13.0313C34.181 12.8362 34.3497 12.5994 34.4652 12.3359C34.5806 12.0723 34.6402 11.7877 34.6402 11.5C34.6402 11.2123 34.5806 10.9277 34.4652 10.6642C34.3497 10.4006 34.181 10.1639 33.9695 9.96879V9.96879Z" fill="white"/>
</svg>
