<svg width="479" height="301" viewBox="0 0 479 301" fill="none" xmlns="http://www.w3.org/2000/svg">
<g clip-path="url(#clip0_848_709)">
<path d="M524.022 -27.7508C480.078 -65.7168 429.933 -67.9464 409.304 -65.1257C360.206 -58.4368 340.138 -43.099 314.054 -26.4857C292.233 -12.5997 275.887 13.1395 242.367 26.3929C242.191 26.4655 242.014 26.5277 241.849 26.6003C241.672 26.6729 241.506 26.7455 241.33 26.818C207.986 40.4862 178.355 33.258 152.997 38.3706C122.682 44.4684 97.583 47.3099 57.5496 76.5129C40.7169 88.7706 6.10773 125.129 0.745739 182.954C-6.64904 262.62 48.7029 301.311 119.135 405.658C184.557 502.403 205.051 575.027 263.431 610.794C321.812 646.562 388.271 651.311 478.056 617.089C478.512 616.913 478.979 616.737 479.435 616.56C479.892 616.374 480.338 616.177 480.794 615.99C569.241 578.449 613.859 528.972 631.168 462.737C648.468 396.501 612.915 329.944 593.033 214.864C571.492 90.824 584.58 24.578 524.032 -27.7301" fill="#F18184"/>
</g>
<defs>
<clipPath id="clip0_848_709">
<rect width="479" height="301" fill="white"/>
</clipPath>
</defs>
</svg>
