<svg width="40" height="41" viewBox="0 0 40 41" fill="none" xmlns="http://www.w3.org/2000/svg">
<path d="M27.4553 24.6061C27.2542 24.5221 27.0383 24.484 26.8149 24.484C26.5766 24.484 26.3607 24.5374 26.1596 24.6213C25.9586 24.7053 25.7724 24.8427 25.6235 25.0029C25.4745 25.1784 25.3554 25.3616 25.2735 25.5753C25.1916 25.7814 25.1543 26.0027 25.1543 26.2316C25.1543 26.4758 25.2065 26.6971 25.2884 26.9032C25.3703 27.1093 25.5043 27.3001 25.6607 27.4527C25.8319 27.6053 26.0107 27.7274 26.2191 27.8114C28.6764 28.8111 30.2029 30.3604 30.2029 31.8638C30.2029 34.3136 26.0628 37.0381 20.1132 37.0381C14.1637 37.0381 10.0235 34.3136 10.0235 31.8638C10.0235 30.3604 11.5575 28.8111 14.0073 27.8114C14.4243 27.6358 14.7445 27.3077 14.9306 26.8956C15.1019 26.4682 15.1168 26.0027 14.9455 25.5677C14.7743 25.1403 14.4541 24.8121 14.052 24.6213C13.635 24.4458 13.1808 24.4306 12.7563 24.6061C8.9364 26.1553 6.65039 28.8646 6.65039 31.8638C6.65039 36.687 12.5553 40.48 20.1058 40.48C27.6563 40.48 33.5612 36.687 33.5612 31.8638C33.5612 28.8646 31.2752 26.1553 27.4553 24.6061ZM18.4229 19.5615V31.8714C18.4229 32.337 18.6091 32.7644 18.9144 33.0925C19.2346 33.4054 19.6516 33.5962 20.1058 33.5962C20.56 33.5962 20.977 33.4054 21.2972 33.0925C21.6025 32.7644 21.7887 32.337 21.7887 31.8714V19.5615C23.3673 19.1494 24.7522 18.1497 25.6756 16.7531C26.5989 15.3717 26.9861 13.6851 26.7851 12.0138C26.584 10.3577 25.7724 8.82371 24.5512 7.72475C23.3226 6.60289 21.744 6 20.1132 6C18.4825 6 16.9039 6.60289 15.6753 7.72475C14.4466 8.83134 13.6424 10.3653 13.4414 12.0138C13.2403 13.6851 13.6275 15.3717 14.5509 16.7531C15.4742 18.1497 16.8518 19.1494 18.4378 19.5615M20.1058 9.45716C20.776 9.45716 21.4163 9.6632 21.9748 10.0448C22.5333 10.4264 22.9652 10.9606 23.2183 11.5788C23.4715 12.2198 23.5385 12.9067 23.4045 13.5783C23.2704 14.2499 22.9503 14.8528 22.4812 15.3335C22.012 15.8143 21.4238 16.1425 20.7685 16.2799C20.1133 16.4173 19.4431 16.3486 18.8176 16.0891C18.2145 15.8296 17.6932 15.3793 17.3209 14.8146C16.9486 14.2422 16.7475 13.5935 16.7475 12.8991C16.7475 11.9833 17.0975 11.1056 17.7379 10.4722C18.3634 9.81584 19.2197 9.45716 20.1058 9.45716Z" fill="white"/>
</svg>
