<svg width="983" height="1092" viewBox="0 0 983 1092" fill="none" xmlns="http://www.w3.org/2000/svg">
<path d="M809.569 59.4231C741.708 0.785678 664.272 -2.65872 632.401 1.69863C556.573 12.0214 525.584 35.7171 485.31 61.3735C451.602 82.8179 426.361 122.574 374.602 143.043C374.332 143.146 374.062 143.25 373.793 143.354C373.523 143.468 373.263 143.572 372.994 143.686C321.494 164.798 275.742 153.625 236.588 161.52C189.778 170.93 151.018 175.318 89.1851 220.427C63.1862 239.361 9.74644 295.508 1.4571 384.813C-9.96538 507.857 75.5113 567.614 184.289 728.774C285.328 878.19 316.971 990.36 407.126 1045.59C497.282 1100.83 599.918 1108.17 738.565 1055.32C739.27 1055.05 739.986 1054.78 740.692 1054.5C741.387 1054.21 742.092 1053.9 742.787 1053.61C879.38 995.641 948.288 919.221 975.003 816.927C1001.72 714.623 946.805 611.831 916.106 434.093C882.845 242.525 903.055 140.2 809.559 59.4128" fill="#FF7500"/>
</svg>
