<svg width="40" height="40" viewBox="0 0 40 40" fill="none" xmlns="http://www.w3.org/2000/svg">
<path d="M37.1773 27.1185H33.423C33.629 26.5691 33.7358 25.9816 33.7358 25.3941V16.7798C33.7358 15.3988 33.1864 14.094 32.2173 13.125C31.2482 12.156 29.9434 11.6066 28.5622 11.6066H18.2225C16.8414 11.6066 15.5365 12.156 14.5674 13.125C13.606 14.0864 13.0489 15.3988 13.0489 16.7798V25.3941C13.0489 25.9816 13.1557 26.5691 13.3618 27.1185H11.332C10.8665 27.1185 10.4392 26.9277 10.1111 26.6225C9.79822 26.2944 9.61509 25.8671 9.61509 25.4017V8.17314C9.61509 6.79211 9.06567 5.48737 8.09657 4.51836C7.1351 3.55698 5.82262 3 4.44145 3H2.71691C2.25144 3 1.82411 3.19075 1.49599 3.49595C1.18313 3.82404 1 4.25132 1 4.71675C1 5.18218 1.19076 5.60947 1.49599 5.93756C1.82411 6.25039 2.25144 6.4335 2.71691 6.4335H4.44145C4.90693 6.4335 5.33425 6.62425 5.66238 6.92945C5.97524 7.25754 6.15837 7.68482 6.15837 8.15025V25.3788C6.15837 26.5157 6.5399 27.5991 7.22667 28.4995C7.91343 29.3922 8.8978 30.0484 9.98136 30.3459C9.6685 31.1242 9.53115 31.9635 9.62271 32.7952C9.70665 33.6421 9.98136 34.428 10.4468 35.1376C10.9123 35.8472 11.5304 36.4118 12.2553 36.8238C12.9955 37.2359 13.8196 37.4419 14.6514 37.4647C15.4984 37.48 16.3225 37.3121 17.0779 36.9306C17.8181 36.5491 18.4744 35.9998 18.9551 35.3283C19.4511 34.6416 19.764 33.8481 19.8861 33.0164C20.0081 32.1924 19.9013 31.3455 19.6266 30.552H25.4183C25.1436 31.3302 25.0368 32.1695 25.1589 33.0012C25.2657 33.81 25.5709 34.6035 26.0364 35.2902C26.5172 35.9616 27.1581 36.511 27.8983 36.8925C28.6232 37.2893 29.4474 37.48 30.2791 37.48C31.1109 37.48 31.935 37.2893 32.6599 36.8925C33.4001 36.511 34.0411 35.9616 34.5218 35.2902C34.9873 34.6035 35.3001 33.81 35.3993 33.0012C35.5214 32.1771 35.4146 31.3302 35.1399 30.552H37.1697C37.6351 30.552 38.0625 30.3612 38.3906 30.056C38.7034 29.7279 38.8866 29.3006 38.8866 28.8352C38.8866 28.3698 38.6958 27.9425 38.3906 27.6144C38.0625 27.3016 37.6351 27.1185 37.1697 27.1185M14.7811 34.0084C14.4377 34.0084 14.1096 33.9015 13.8196 33.7184C13.5449 33.5277 13.3236 33.2682 13.2015 32.9401C13.0642 32.6273 13.026 32.284 13.0947 31.9406C13.1634 31.6125 13.316 31.2997 13.5602 31.0632C13.8044 30.8266 14.1096 30.6664 14.4377 30.5977C14.7811 30.5291 15.1245 30.5596 15.4373 30.7046C15.7655 30.8266 16.0249 31.0479 16.2157 31.3226C16.4064 31.6125 16.5056 31.9406 16.5056 32.284C16.5056 32.7494 16.3149 33.1767 16.0096 33.5048C15.6815 33.8176 15.2542 34.0007 14.7887 34.0007M18.2302 27.1185C17.7647 27.1185 17.3374 26.9277 17.0093 26.6225C16.6964 26.2944 16.5133 25.8671 16.5133 25.4017V16.7874C16.5133 16.322 16.704 15.8947 17.0093 15.5666C17.3374 15.2538 17.7647 15.0707 18.2302 15.0707H28.5698C29.0353 15.0707 29.4626 15.2614 29.7907 15.5666C30.1036 15.8947 30.2867 16.322 30.2867 16.7874V25.4017C30.2867 25.8671 30.096 26.2944 29.7907 26.6225C29.4626 26.9353 29.0353 27.1185 28.5698 27.1185H18.2302ZM30.2867 34.0084C29.9433 34.0084 29.6152 33.9015 29.3253 33.7184C29.0506 33.5277 28.8293 33.2682 28.7072 32.9401C28.5698 32.6273 28.5317 32.284 28.6003 31.9406C28.669 31.6125 28.8216 31.2997 29.0658 31.0632C29.31 30.819 29.6152 30.6664 29.9433 30.5977C30.2867 30.5291 30.6301 30.5596 30.943 30.7046C31.2711 30.8266 31.5305 31.0479 31.7213 31.3226C31.9121 31.6125 32.0113 31.9406 32.0113 32.284C32.0113 32.7494 31.8205 33.1767 31.5153 33.5048C31.1872 33.8176 30.7598 34.0007 30.2944 34.0007" fill="white"/>
</svg>
