<svg width="40" height="40" viewBox="0 0 40 40" fill="none" xmlns="http://www.w3.org/2000/svg">
<path d="M22.5466 20.2118L32.9595 9.82074C33.2707 9.50963 33.4469 9.09481 33.4469 8.64889C33.4469 8.20296 33.2707 7.78814 32.9595 7.47703C32.6484 7.16592 32.2232 7 31.7876 7C31.352 7 30.9267 7.16592 30.6156 7.47703L20.2235 17.8889L9.83136 7.47703C9.52022 7.16592 9.09499 7 8.65939 7C8.22379 7 7.79856 7.16592 7.48742 7.47703C7.17628 7.78814 7 8.20296 7 8.64889C7 9.09481 7.17628 9.50963 7.48742 9.82074L17.9003 20.2118L7.48742 30.603C7.33185 30.7482 7.20742 30.9348 7.12445 31.1526C7.04148 31.3496 7 31.5674 7 31.7852C7 32.003 7.04148 32.2104 7.12445 32.4178C7.20742 32.6356 7.33185 32.8119 7.48742 32.9674C7.64299 33.1126 7.8297 33.2474 8.02675 33.3304C8.22381 33.4133 8.44159 33.4652 8.65939 33.4652C8.87719 33.4652 9.09497 33.4133 9.29203 33.3304C9.48908 33.2474 9.67579 33.1126 9.83136 32.9674L20.2235 22.5556L30.6156 32.9674C30.7712 33.1126 30.9577 33.2474 31.1548 33.3304C31.3518 33.4133 31.5698 33.4652 31.7876 33.4652C32.0054 33.4652 32.2231 33.4133 32.4202 33.3304C32.6173 33.2474 32.804 33.1126 32.9595 32.9674C33.1151 32.8222 33.2395 32.6356 33.3225 32.4178C33.4055 32.2208 33.4469 32.003 33.4469 31.7852C33.4469 31.5674 33.4055 31.36 33.3225 31.1526C33.2395 30.9348 33.1151 30.7585 32.9595 30.603L22.5466 20.2118Z" fill="white"/>
</svg>
