<svg width="68" height="111" viewBox="0 0 68 111" fill="none" xmlns="http://www.w3.org/2000/svg">
<path d="M33.6897 110.638C44.4133 110.837 53.3458 107.37 58.4373 98.9003C62.1189 92.7801 60.6667 85.656 62.5573 75.3061C64.4903 64.7096 69.1683 54.4669 65.9624 47.1883C64.5775 44.0422 62.7441 41.9399 60.5048 40.1937C54.3372 35.3887 45.4644 35.8794 39.2595 38.4526C31.956 41.4791 28.1324 37.9021 24.1669 37.1623C20.7742 36.532 18.0566 35.7773 12.6911 37.1324C10.4392 37.7003 5.33779 40.0219 2.37107 45.7859C-1.71657 53.7246 2.40096 60.0416 5.34277 73.7841C8.07036 86.5303 7.17611 94.9049 11.7296 101.043C16.283 107.178 22.9662 110.438 33.6897 110.638Z" fill="#EF7015"/>
<path d="M42.9418 26.9476C42.9517 23.1888 39.7658 20.1797 35.8426 20.2395C35.0255 20.252 34.2583 19.9605 33.6879 19.4225C33.1175 18.882 32.8036 18.1521 32.8061 17.37C32.8086 16.5853 33.125 15.848 33.6979 15.2925C34.2733 14.7345 35.0405 14.4232 35.8575 14.4107C39.7808 14.3509 42.9816 11.2198 42.9916 7.4261C43.0016 3.66726 39.8156 0.658195 35.8924 0.717978C31.3165 0.785233 26.9698 2.59366 23.6594 5.80698C20.3887 8.97297 18.5828 13.1578 18.5704 17.5817C18.5604 22.0056 20.3464 26.1356 23.5996 29.2094C26.8951 32.3256 31.2318 34.0045 35.8077 33.9347C39.7334 33.875 42.9343 30.7414 42.9418 26.9476Z" fill="#02C771"/>
</svg>
