<svg width="702" height="712" viewBox="0 0 702 712" fill="none" xmlns="http://www.w3.org/2000/svg">
<path d="M374.253 656.891C430.235 591.354 419.642 491.643 350.391 434.209C336.189 422.662 327.059 406.021 324.953 387.835C322.992 370.125 328.501 352.395 340.152 338.918C351.906 325.265 368.703 316.976 386.672 315.938C405.118 314.87 423.284 320.866 437.455 332.735C506.789 390.159 609.218 383.166 665.708 317.391C722.198 251.616 711.149 152.102 641.888 94.6681C561.028 27.6687 457.561 -5.77911 352.788 1.23414C250.816 6.72233 155.462 53.5016 88.7119 130.803C22.7707 207.368 -8.20798 307.981 3.24563 408.376C14.1909 511.729 65.2963 606.646 145.544 672.67C215.137 729.793 317.608 722.832 374.253 656.891Z" fill="#59D359"/>
</svg>
