<svg width="515" height="301" viewBox="0 0 515 301" fill="none" xmlns="http://www.w3.org/2000/svg">
<g clip-path="url(#clip0_848_710)">
<path d="M252.215 318.941C297.144 266.353 288.639 186.335 233.07 140.249C221.672 130.988 214.339 117.631 212.659 103.04C211.082 88.8327 215.501 74.6045 224.856 63.7882C234.283 52.8371 247.766 46.1794 262.193 45.3497C277.003 44.489 291.575 49.3009 302.952 58.8209C358.594 104.896 440.798 99.286 486.131 46.5112C531.464 -6.2636 522.596 -86.1258 467.016 -132.212C402.123 -185.982 319.09 -212.81 235.009 -207.19C153.159 -202.792 76.6387 -165.252 23.0706 -103.216C-29.8544 -41.7821 -54.7145 38.9512 -45.5255 119.519C-36.741 202.45 4.26736 278.621 68.6735 331.603C124.523 377.44 206.758 371.861 252.215 318.941Z" fill="#FF7500"/>
</g>
<defs>
<clipPath id="clip0_848_710">
<rect width="515" height="301" fill="white"/>
</clipPath>
</defs>
</svg>
