<svg width="49" height="49" viewBox="0 0 49 49" fill="none" xmlns="http://www.w3.org/2000/svg">
<path d="M44.8489 15.0624C44.8504 14.7962 44.7994 14.5324 44.6988 14.286C44.5981 14.0395 44.4498 13.8154 44.2624 13.6265L35.6873 5.05138C35.4983 4.86394 35.2742 4.71564 35.0278 4.615C34.7814 4.51435 34.5176 4.46334 34.2514 4.46488C33.9852 4.46334 33.7214 4.51435 33.475 4.615C33.2286 4.71564 33.0044 4.86394 32.8155 5.05138L27.092 10.7748L4.98693 32.8799C4.79949 33.0689 4.65119 33.293 4.55055 33.5394C4.4499 33.7858 4.39889 34.0497 4.40042 34.3158V42.8909C4.40042 43.4273 4.6135 43.9417 4.99278 44.321C5.37206 44.7003 5.88647 44.9133 6.42285 44.9133H14.9979C15.2809 44.9287 15.564 44.8845 15.8288 44.7834C16.0936 44.6824 16.3342 44.5268 16.535 44.3268L38.5187 22.2218L44.2624 16.5994C44.447 16.4034 44.5974 16.1778 44.7073 15.932C44.7268 15.7708 44.7268 15.6078 44.7073 15.4466C44.7168 15.3525 44.7168 15.2576 44.7073 15.1635L44.8489 15.0624ZM14.1687 40.8685H8.44527V35.145L28.5279 15.0624L34.2514 20.7858L14.1687 40.8685ZM37.103 17.9342L31.3795 12.2108L34.2514 9.35914L39.9546 15.0624L37.103 17.9342Z" fill="white"/>
</svg>
