<svg width="40" height="40" viewBox="0 0 40 40" fill="none" xmlns="http://www.w3.org/2000/svg">
<path d="M35.6193 14.4321L8.97539 3.42911C7.96937 3.01429 6.85961 2.90023 5.78099 3.0869C4.71274 3.27357 3.72746 3.77132 2.92887 4.51798C2.10953 5.26465 1.53913 6.20836 1.26948 7.27651C0.999824 8.32391 1.02053 9.42319 1.36279 10.4706L4.2979 19.7002L1.29024 28.9298C0.947988 29.9773 0.906454 31.0973 1.17611 32.1447C1.44576 33.2128 2.03697 34.1772 2.83556 34.9239C3.86233 35.8987 5.23133 36.4276 6.64183 36.4484C7.38857 36.4484 8.14566 36.2928 8.83017 36.0128L35.5675 25.0098C36.6151 24.5743 37.4862 23.8484 38.1189 22.8943C38.7515 21.9609 39.0938 20.8617 39.0938 19.7313C39.0938 18.601 38.7515 17.5017 38.1189 16.5684C37.4862 15.6143 36.6151 14.8987 35.5675 14.4528L35.6297 14.4113L35.6193 14.4321ZM7.43007 32.4558C7.08781 32.5906 6.72478 32.6321 6.36179 32.5699C5.99879 32.5076 5.67729 32.3417 5.40764 32.0928C5.15873 31.8439 4.97204 31.5432 4.88907 31.2217C4.79573 30.8795 4.79573 30.5373 4.88907 30.195L7.66859 21.6084H33.7941L7.41968 32.4558H7.43007ZM7.67897 17.8024L4.84761 9.29874C4.75427 8.95652 4.75427 8.61431 4.84761 8.27208C4.92021 7.9506 5.11726 7.63946 5.36618 7.40095C5.54249 7.21428 5.77064 7.05874 5.99881 6.96541C6.24773 6.87207 6.49662 6.80986 6.7559 6.80986C7.00481 6.80986 7.2745 6.87207 7.50267 6.96541L33.8251 17.8128H7.69973L7.67897 17.8024Z" fill="white"/>
</svg>
